<svg xmlns="http://www.w3.org/2000/svg" viewBox="0 0 64 64">
  <g stroke="#DARK" stroke-width="2.7" stroke-linejoin="round" stroke-linecap="round">
    <path d="M8 19c8-7 24-7 34 1 8 7 5 14-3 20-7 5-10 8-5 11 6 4 14 1 21-4-5 10-19 15-28 8-10-8-2-17 7-24 5-4 4-7 0-9-7-4-17 0-26 4-4 1-6-5 0-7z" fill="#MAIN"/>
    <path d="M18 15c10-2 22 2 27 9M24 26c4-4 8-3 11 0-3 5-8 6-11 0z" fill="#DARK"/>
    <circle cx="12" cy="21" r="2" fill="#DARK" stroke="none"/>
    <path d="M7 24h6" fill="none"/>
  </g>
</svg>
