<svg xmlns="http://www.w3.org/2000/svg" viewBox="0 0 64 64">
  <path d="M30 43C14 45 6 35 10 23c4-11 17-12 23-5-9 0-13 8-9 14 5 7 14 3 14-4 8 10 2 22-8 15z"
        fill="#MAIN" stroke="#DARK" stroke-width="2.8" stroke-linejoin="round"/>
  <path d="M28 34c0-9 7-16 16-16l3-8 5 9 7 2-6 6c3 15-5 28-18 28-8 0-13-7-12-14z"
        fill="#MAIN" stroke="#DARK" stroke-width="2.8" stroke-linejoin="round"/>
  <circle cx="44" cy="27" r="1.4" fill="#DARK"/>
  <circle cx="50" cy="27" r="1.4" fill="#DARK"/>
  <path d="M45 32c1 .7 2 .7 3 0M27 45c-8 0-12 5-12 11h22"
        fill="none" stroke="#DARK" stroke-width="2.5" stroke-linecap="round"/>
</svg>
